<svg width="145" height="39" viewBox="0 0 145 39" fill="none" xmlns="http://www.w3.org/2000/svg">
<path d="M46.984 26.3379H44.6274L49.9224 11.624H52.4873L57.7823 26.3379H55.4258L51.2659 14.2967H51.151L46.984 26.3379ZM47.3791 20.5759H55.0234V22.4439H47.3791V20.5759Z" fill="#0B2471"/>
<path d="M66.4442 21.7614V15.3025H68.5996V26.3379H66.4873V24.4268H66.3724C66.1185 25.016 65.7114 25.5069 65.151 25.8997C64.5954 26.2876 63.9033 26.4816 63.0747 26.4816C62.3658 26.4816 61.7384 26.3259 61.1923 26.0146C60.6511 25.6985 60.2248 25.2315 59.9135 24.6136C59.607 23.9958 59.4537 23.2318 59.4537 22.3218V15.3025H61.6019V22.0631C61.6019 22.8151 61.8102 23.4138 62.2269 23.8593C62.6436 24.3047 63.1849 24.5274 63.8506 24.5274C64.253 24.5274 64.6529 24.4268 65.0504 24.2257C65.4528 24.0245 65.7856 23.7204 66.0491 23.3132C66.3173 22.9061 66.449 22.3888 66.4442 21.7614Z" fill="#0B2471"/>
<path d="M76.3563 15.3025V17.0268H70.3285V15.3025H76.3563ZM71.945 12.6586H74.0931V23.0977C74.0931 23.5144 74.1554 23.8281 74.2799 24.0389C74.4045 24.2448 74.5649 24.3861 74.7613 24.4628C74.9625 24.5346 75.1804 24.5705 75.4151 24.5705C75.5875 24.5705 75.7384 24.5586 75.8677 24.5346C75.997 24.5107 76.0976 24.4915 76.1695 24.4771L76.5574 26.2517C76.4329 26.2996 76.2557 26.3475 76.0258 26.3954C75.7959 26.4481 75.5085 26.4768 75.1636 26.4816C74.5985 26.4912 74.0716 26.3906 73.583 26.1799C73.0945 25.9691 72.6994 25.6434 72.3976 25.2028C72.0959 24.7621 71.945 24.2089 71.945 23.5431V12.6586Z" fill="#0B2471"/>
<path d="M82.9814 26.5606C81.9468 26.5606 81.044 26.3235 80.2728 25.8494C79.5017 25.3752 78.903 24.7118 78.4767 23.8593C78.0504 23.0067 77.8373 22.0104 77.8373 20.8705C77.8373 19.7258 78.0504 18.7247 78.4767 17.8674C78.903 17.01 79.5017 16.3443 80.2728 15.8701C81.044 15.3959 81.9468 15.1588 82.9814 15.1588C84.016 15.1588 84.9188 15.3959 85.69 15.8701C86.4611 16.3443 87.0598 17.01 87.4861 17.8674C87.9124 18.7247 88.1255 19.7258 88.1255 20.8705C88.1255 22.0104 87.9124 23.0067 87.4861 23.8593C87.0598 24.7118 86.4611 25.3752 85.69 25.8494C84.9188 26.3235 84.016 26.5606 82.9814 26.5606ZM82.9886 24.7573C83.6591 24.7573 84.2147 24.5801 84.6554 24.2257C85.096 23.8712 85.4217 23.3994 85.6325 22.8103C85.848 22.2212 85.9558 21.5722 85.9558 20.8633C85.9558 20.1592 85.848 19.5126 85.6325 18.9235C85.4217 18.3296 85.096 17.853 84.6554 17.4938C84.2147 17.1345 83.6591 16.9549 82.9886 16.9549C82.3132 16.9549 81.7528 17.1345 81.3074 17.4938C80.8667 17.853 80.5387 18.3296 80.3231 18.9235C80.1124 19.5126 80.007 20.1592 80.007 20.8633C80.007 21.5722 80.1124 22.2212 80.3231 22.8103C80.5387 23.3994 80.8667 23.8712 81.3074 24.2257C81.7528 24.5801 82.3132 24.7573 82.9886 24.7573Z" fill="#0B2471"/>
<path d="M90.2423 26.3379V15.3025H92.3043V17.0986H92.4408C92.6707 16.4903 93.0467 16.0162 93.5688 15.6761C94.0909 15.3312 94.7159 15.1588 95.4439 15.1588C96.1816 15.1588 96.7994 15.3312 97.2975 15.6761C97.8005 16.0209 98.1717 16.4951 98.4111 17.0986H98.5261C98.7895 16.5095 99.2086 16.0401 99.7834 15.6905C100.358 15.336 101.043 15.1588 101.838 15.1588C102.839 15.1588 103.656 15.4725 104.288 16.1C104.925 16.7274 105.244 17.6734 105.244 18.9379V26.3379H103.095V19.139C103.095 18.3918 102.892 17.8506 102.485 17.5153C102.078 17.1801 101.591 17.0124 101.026 17.0124C100.327 17.0124 99.7834 17.2279 99.3954 17.659C99.0075 18.0853 98.8135 18.6337 98.8135 19.3043V26.3379H96.6725V19.0025C96.6725 18.4038 96.4857 17.9225 96.1121 17.5584C95.7385 17.1944 95.2524 17.0124 94.6536 17.0124C94.2465 17.0124 93.8705 17.1202 93.5257 17.3357C93.1856 17.5465 92.9102 17.841 92.6995 18.2194C92.4935 18.5978 92.3905 19.0361 92.3905 19.5342V26.3379H90.2423Z" fill="#0B2471"/>
<path d="M111.053 26.5822C110.354 26.5822 109.722 26.4529 109.157 26.1942C108.591 25.9308 108.144 25.55 107.813 25.0519C107.487 24.5538 107.325 23.9431 107.325 23.2198C107.325 22.5972 107.444 22.0847 107.684 21.6823C107.923 21.28 108.247 20.9615 108.654 20.7268C109.061 20.4921 109.516 20.3149 110.019 20.1952C110.522 20.0754 111.034 19.9844 111.556 19.9221C112.217 19.8455 112.754 19.7832 113.166 19.7353C113.577 19.6827 113.877 19.5988 114.064 19.4839C114.25 19.3689 114.344 19.1821 114.344 18.9235V18.8732C114.344 18.2458 114.167 17.7596 113.812 17.4147C113.463 17.0699 112.94 16.8975 112.246 16.8975C111.523 16.8975 110.953 17.0579 110.536 17.3788C110.124 17.6949 109.839 18.047 109.681 18.4349L107.662 17.9751C107.902 17.3046 108.251 16.7633 108.711 16.3514C109.176 15.9347 109.71 15.633 110.313 15.4462C110.917 15.2546 111.551 15.1588 112.217 15.1588C112.658 15.1588 113.125 15.2115 113.618 15.3169C114.116 15.4174 114.581 15.6042 115.012 15.8773C115.448 16.1503 115.805 16.5406 116.082 17.0483C116.36 17.5513 116.499 18.205 116.499 19.0097V26.3379H114.401V24.8292H114.315C114.176 25.107 113.968 25.38 113.69 25.6482C113.412 25.9164 113.055 26.1391 112.62 26.3164C112.184 26.4936 111.662 26.5822 111.053 26.5822ZM111.52 24.8579C112.114 24.8579 112.622 24.7406 113.043 24.5059C113.47 24.2712 113.793 23.9646 114.013 23.5862C114.238 23.2031 114.351 22.7936 114.351 22.3577V20.9352C114.274 21.0118 114.126 21.0836 113.906 21.1507C113.69 21.213 113.443 21.268 113.166 21.3159C112.888 21.359 112.617 21.3998 112.354 21.4381C112.09 21.4716 111.87 21.5003 111.693 21.5243C111.276 21.577 110.895 21.6656 110.55 21.7901C110.21 21.9146 109.937 22.0943 109.731 22.329C109.53 22.5589 109.43 22.8654 109.43 23.2486C109.43 23.7802 109.626 24.1826 110.019 24.4556C110.411 24.7238 110.912 24.8579 111.52 24.8579Z" fill="#0B2471"/>
<path d="M124.231 15.3025V17.0268H118.203V15.3025H124.231ZM119.819 12.6586H121.968V23.0977C121.968 23.5144 122.03 23.8281 122.154 24.0389C122.279 24.2448 122.439 24.3861 122.636 24.4628C122.837 24.5346 123.055 24.5705 123.29 24.5705C123.462 24.5705 123.613 24.5586 123.742 24.5346C123.871 24.5107 123.972 24.4915 124.044 24.4771L124.432 26.2517C124.307 26.2996 124.13 26.3475 123.9 26.3954C123.67 26.4481 123.383 26.4768 123.038 26.4816C122.473 26.4912 121.946 26.3906 121.457 26.1799C120.969 25.9691 120.574 25.6434 120.272 25.2028C119.97 24.7621 119.819 24.2089 119.819 23.5431V12.6586Z" fill="#0B2471"/>
<path d="M130.856 26.5606C129.821 26.5606 128.918 26.3235 128.147 25.8494C127.376 25.3752 126.777 24.7118 126.351 23.8593C125.925 23.0067 125.712 22.0104 125.712 20.8705C125.712 19.7258 125.925 18.7247 126.351 17.8674C126.777 17.01 127.376 16.3443 128.147 15.8701C128.918 15.3959 129.821 15.1588 130.856 15.1588C131.89 15.1588 132.793 15.3959 133.564 15.8701C134.336 16.3443 134.934 17.01 135.361 17.8674C135.787 18.7247 136 19.7258 136 20.8705C136 22.0104 135.787 23.0067 135.361 23.8593C134.934 24.7118 134.336 25.3752 133.564 25.8494C132.793 26.3235 131.89 26.5606 130.856 26.5606ZM130.863 24.7573C131.534 24.7573 132.089 24.5801 132.53 24.2257C132.97 23.8712 133.296 23.3994 133.507 22.8103C133.722 22.2212 133.83 21.5722 133.83 20.8633C133.83 20.1592 133.722 19.5126 133.507 18.9235C133.296 18.3296 132.97 17.853 132.53 17.4938C132.089 17.1345 131.534 16.9549 130.863 16.9549C130.188 16.9549 129.627 17.1345 129.182 17.4938C128.741 17.853 128.413 18.3296 128.198 18.9235C127.987 19.5126 127.881 20.1592 127.881 20.8633C127.881 21.5722 127.987 22.2212 128.198 22.8103C128.413 23.3994 128.741 23.8712 129.182 24.2257C129.627 24.5801 130.188 24.7573 130.863 24.7573Z" fill="#0B2471"/>
<path d="M138.117 26.3379V15.3025H140.193V17.0555H140.308C140.509 16.4616 140.864 15.9946 141.371 15.6545C141.884 15.3097 142.463 15.1373 143.11 15.1373C143.244 15.1373 143.402 15.142 143.584 15.1516C143.771 15.1612 143.917 15.1732 144.022 15.1875V17.2423C143.936 17.2184 143.783 17.192 143.563 17.1633C143.342 17.1298 143.122 17.113 142.902 17.113C142.394 17.113 141.941 17.2208 141.544 17.4363C141.151 17.647 140.84 17.9416 140.61 18.32C140.38 18.6936 140.265 19.1199 140.265 19.5988V26.3379H138.117Z" fill="#0B2471"/>
<path d="M33.093 13.99C35.9172 21.7163 31.9432 30.2692 24.2169 33.0933C16.4906 35.9175 7.93777 31.9435 5.1136 24.2172C2.28944 16.4909 6.2634 7.9381 13.9897 5.11394C21.716 2.28977 30.2688 6.26374 33.093 13.99ZM9.44325 22.6346C11.3934 27.9697 17.2992 30.7138 22.6343 28.7637C27.9694 26.8136 30.7135 20.9077 28.7633 15.5726C26.8132 10.2375 20.9074 7.49347 15.5723 9.44359C10.2372 11.3937 7.49314 17.2995 9.44325 22.6346Z" fill="#EEF2FF"/>
<path d="M29.3679 26.3768C30.411 27.1159 30.6689 28.5763 29.7773 29.4925C28.1297 31.1852 26.0948 32.4701 23.8341 33.2274C20.8378 34.231 17.6 34.2557 14.5887 33.298C11.5775 32.3402 8.94883 30.4497 7.08282 27.8996C5.21681 25.3495 4.21013 22.2721 4.20832 19.1122C4.2065 15.9523 5.20965 12.8737 7.07273 10.3215C8.93581 7.76928 11.5623 5.87569 14.5724 4.91449C17.5826 3.95329 20.8204 3.97429 23.8178 4.97445C26.0795 5.72911 28.1158 7.01171 29.7653 8.70256C30.658 9.61768 30.4018 11.0784 29.3596 11.8187V11.8187C28.3173 12.559 26.8859 12.2887 25.9313 11.4384C24.8972 10.5173 23.6813 9.80944 22.3525 9.36605C20.2867 8.67676 18.0552 8.66229 15.9807 9.32473C13.9062 9.98717 12.096 11.2922 10.812 13.0511C9.52804 14.8101 8.83669 16.9318 8.83794 19.1095C8.83919 21.2873 9.53298 23.4082 10.819 25.1656C12.105 26.9231 13.9166 28.2261 15.9919 28.8861C18.0672 29.5462 20.2987 29.5291 22.3637 28.8375C23.6919 28.3926 24.9071 27.6834 25.9401 26.761C26.8938 25.9096 28.3248 25.6376 29.3679 26.3768V26.3768Z" fill="#DCE5FF"/>
<path d="M29.322 26.4387C30.3612 27.1847 30.6103 28.6475 29.7124 29.5587C28.7518 30.5335 27.6587 31.3739 26.4624 32.0537C24.5927 33.1162 22.5151 33.7612 20.3724 33.9445C18.2297 34.1277 16.0728 33.8448 14.0498 33.1152C12.0268 32.3855 10.1859 31.2265 8.6534 29.7178C7.12095 28.209 5.93336 26.3864 5.17229 24.375C4.41121 22.3637 4.0947 20.2114 4.24449 18.0661C4.39429 15.9208 5.00685 13.8334 6.04006 11.9473C6.70115 10.7406 7.5244 9.63459 8.48411 8.65886C9.38112 7.74687 10.8477 7.97312 11.6097 9.00055V9.00055C12.3718 10.028 12.1309 11.4654 11.3 12.4381C10.8438 12.9722 10.4422 13.5533 10.1028 14.173C9.3909 15.4725 8.96885 16.9107 8.86564 18.3888C8.76243 19.8669 8.98051 21.3498 9.50488 22.7356C10.0293 24.1214 10.8475 25.3772 11.9034 26.4167C12.9592 27.4563 14.2276 28.2548 15.6215 28.7575C17.0153 29.2602 18.5014 29.4552 19.9777 29.3289C21.454 29.2027 22.8855 28.7582 24.1737 28.0262C24.788 27.6771 25.3628 27.2665 25.8897 26.802C26.8493 25.9561 28.2828 25.6928 29.322 26.4387V26.4387Z" fill="#265CFF"/>
</svg>
