<svg width="29" height="29" viewBox="0 0 29 29" fill="none" xmlns="http://www.w3.org/2000/svg">
<path d="M10.739 14.5H17.739" stroke="#265CFF" stroke-width="1.5" stroke-linecap="round" stroke-linejoin="round"/>
<path d="M10.739 18H17.739" stroke="#265CFF" stroke-width="1.5" stroke-linecap="round" stroke-linejoin="round"/>
<path d="M6.36401 4.875H22.114C22.3461 4.875 22.5686 4.96719 22.7327 5.13128C22.8968 5.29538 22.989 5.51794 22.989 5.75V22.375C22.989 23.0712 22.7125 23.7389 22.2202 24.2312C21.7279 24.7234 21.0602 25 20.364 25H8.11401C7.41782 25 6.75014 24.7234 6.25786 24.2312C5.76558 23.7389 5.48901 23.0712 5.48901 22.375V5.75C5.48901 5.51794 5.5812 5.29538 5.7453 5.13128C5.90939 4.96719 6.13195 4.875 6.36401 4.875Z" stroke="#265CFF" stroke-width="1.5" stroke-linecap="round" stroke-linejoin="round"/>
<path d="M8.98901 3.125V6.625" stroke="#265CFF" stroke-width="1.5" stroke-linecap="round" stroke-linejoin="round"/>
<path d="M14.239 3.125V6.625" stroke="#265CFF" stroke-width="1.5" stroke-linecap="round" stroke-linejoin="round"/>
<path d="M19.489 3.125V6.625" stroke="#265CFF" stroke-width="1.5" stroke-linecap="round" stroke-linejoin="round"/>
</svg>
