<svg width="29" height="29" viewBox="0 0 29 29" fill="none" xmlns="http://www.w3.org/2000/svg">
<path d="M16.864 12.75H21.239" stroke="#265CFF" stroke-width="1.5" stroke-linecap="round" stroke-linejoin="round"/>
<path d="M16.864 16.25H21.239" stroke="#265CFF" stroke-width="1.5" stroke-linecap="round" stroke-linejoin="round"/>
<path d="M10.3125 16.25C11.7622 16.25 12.9375 15.0747 12.9375 13.625C12.9375 12.1753 11.7622 11 10.3125 11C8.86275 11 7.6875 12.1753 7.6875 13.625C7.6875 15.0747 8.86275 16.25 10.3125 16.25Z" stroke="#265CFF" stroke-width="1.5" stroke-linecap="round" stroke-linejoin="round"/>
<path d="M6.92188 18.875C7.11464 18.1222 7.55249 17.4549 8.1664 16.9783C8.78031 16.5018 9.53535 16.2432 10.3125 16.2432C11.0896 16.2432 11.8447 16.5018 12.4586 16.9783C13.0725 17.4549 13.5104 18.1222 13.7031 18.875" stroke="#265CFF" stroke-width="1.5" stroke-linecap="round" stroke-linejoin="round"/>
<path d="M23.864 5.75H4.61401C4.13076 5.75 3.73901 6.14175 3.73901 6.625V22.375C3.73901 22.8582 4.13076 23.25 4.61401 23.25H23.864C24.3473 23.25 24.739 22.8582 24.739 22.375V6.625C24.739 6.14175 24.3473 5.75 23.864 5.75Z" stroke="#265CFF" stroke-width="1.5" stroke-linecap="round" stroke-linejoin="round"/>
</svg>
