<svg width="24" height="24" viewBox="0 0 24 24" fill="none" xmlns="http://www.w3.org/2000/svg">
<path d="M19.6916 19.6898C21.3025 18.0789 19.1656 13.3302 14.9186 9.08321C10.6717 4.83625 5.92293 2.69932 4.31202 4.31024C2.70111 5.92115 4.83804 10.6699 9.08499 14.9168C13.3319 19.1638 18.0807 21.3007 19.6916 19.6898Z" stroke="#265CFF" stroke-linecap="round" stroke-linejoin="round"/>
<path d="M14.9186 14.9168C19.1656 10.6698 21.3025 5.9211 19.6916 4.31019C18.0807 2.69928 13.3319 4.83621 9.08499 9.08316C4.83804 13.3301 2.70111 18.0789 4.31202 19.6898C5.92293 21.3007 10.6717 19.1637 14.9186 14.9168Z" stroke="#265CFF" stroke-linecap="round" stroke-linejoin="round"/>
<path d="M12.4375 12C12.4375 12.2416 12.2416 12.4375 12 12.4375C11.7584 12.4375 11.5625 12.2416 11.5625 12C11.5625 11.7584 11.7584 11.5625 12 11.5625C12.2416 11.5625 12.4375 11.7584 12.4375 12Z" fill="#265CFF" stroke="#265CFF"/>
</svg>
