<svg width="40" height="40" viewBox="0 0 40 40" fill="#3d5367" xmlns="http://www.w3.org/2000/svg">
<g clip-path="url(#clip0_5837_4398)">
<path d="M27.1867 12H12.8154C12.5766 12.0004 12.3402 12.042 12.1197 12.1227C11.8992 12.2033 11.699 12.3213 11.5304 12.4699C11.3619 12.6185 11.2282 12.7948 11.1372 12.9887C11.0462 13.1827 10.9996 13.3905 11 13.6003V26.4006C10.9992 26.6106 11.0455 26.8187 11.1364 27.0129C11.2272 27.2071 11.3607 27.3837 11.5294 27.5325C11.698 27.6813 11.8984 27.7995 12.1191 27.8802C12.3397 27.9609 12.5764 28.0025 12.8154 28.0028H27.1867C27.4254 28.0024 27.6617 27.9607 27.882 27.8802C28.1024 27.7996 28.3025 27.6817 28.471 27.5332C28.6394 27.3847 28.773 27.2084 28.8639 27.0146C28.9549 26.8208 29.0015 26.6131 29.0011 26.4034V13.6003C29.0019 13.1767 28.8112 12.7703 28.471 12.4702C28.1308 12.1701 27.6688 12.001 27.1867 12V12ZM16.776 24.6606H14.3544V17.8162H16.776V24.6606ZM15.55 16.9765C14.7847 16.9765 14.2937 16.5001 14.2937 15.9124C14.2905 15.3109 14.8004 14.8511 15.5835 14.8511C16.3666 14.8511 16.8398 15.3109 16.8576 15.9142C16.8555 16.5001 16.3624 16.9765 15.55 16.9765ZM25.6184 24.6606H23.1968V20.8668C23.1968 19.9857 22.8461 19.3833 21.9698 19.3833C21.3008 19.3833 20.903 19.7898 20.7271 20.1816C20.6651 20.3533 20.6382 20.5333 20.6475 20.7132V24.6606H18.226V20.0014C18.226 19.1479 18.1935 18.4379 18.1621 17.818H20.2654L20.3764 18.7699H20.4245C20.7386 18.322 21.5238 17.6663 22.8325 17.6663C24.4259 17.6663 25.6205 18.6044 25.6205 20.6194L25.6184 24.6606Z" fill="#3d5367"/>
</g>
<defs>
<clipPath id="clip0_5837_4398">
<rect width="18" height="16" fill="white" transform="translate(11 12)"/>
</clipPath>
</defs>
</svg>
