<svg width="40" height="40" viewBox="0 0 40 40" fill="none" xmlns="http://www.w3.org/2000/svg">
<g clip-path="url(#clip0_5837_4403)">
<path d="M20 12.6211C22.4033 12.6211 22.6876 12.6304 23.6369 12.6736C24.5143 12.7136 24.9909 12.8601 25.3081 12.9833C25.6995 13.1274 26.0536 13.3576 26.3442 13.6567C26.6433 13.9473 26.8735 14.3014 27.0176 14.6928C27.1408 15.01 27.2873 15.4866 27.3273 16.364C27.3705 17.3133 27.3798 17.5976 27.3798 20.0009C27.3798 22.4042 27.3705 22.6885 27.3273 23.6378C27.2873 24.5152 27.1408 24.9918 27.0176 25.309C26.8677 25.6971 26.6383 26.0495 26.3442 26.3436C26.05 26.6378 25.6976 26.8672 25.3095 27.0171C24.9923 27.1403 24.5157 27.2868 23.6383 27.3268C22.6894 27.37 22.4047 27.3793 20.0014 27.3793C17.5982 27.3793 17.3134 27.37 16.3646 27.3268C15.4871 27.2868 15.0106 27.1403 14.6933 27.0171C14.3019 26.8729 13.9479 26.6428 13.6573 26.3436C13.3581 26.053 13.128 25.699 12.9838 25.3076C12.8606 24.9903 12.7141 24.5138 12.6741 23.6363C12.6309 22.6871 12.6216 22.4027 12.6216 19.9995C12.6216 17.5962 12.6309 17.3118 12.6741 16.3626C12.7141 15.4852 12.8606 15.0086 12.9838 14.6914C13.128 14.3 13.3581 13.9459 13.6573 13.6553C13.9479 13.3561 14.3019 13.126 14.6933 12.9819C15.0106 12.8586 15.4871 12.7122 16.3646 12.6721C17.3138 12.6289 17.5982 12.6196 20.0014 12.6196L20 12.6211ZM20.0014 10.998C17.5571 10.998 17.2506 11.0084 16.2906 11.0523C15.3307 11.0963 14.6769 11.2496 14.1053 11.4718C13.5046 11.6979 12.9604 12.0522 12.5105 12.51C12.0527 12.9598 11.6984 13.5041 11.4723 14.1047C11.2501 14.6764 11.0979 15.3316 11.0543 16.2894C11.0107 17.2472 11 17.5551 11 19.9995C11 22.4438 11.0104 22.7503 11.0543 23.7103C11.0982 24.6702 11.2501 25.3226 11.4723 25.8942C11.6985 26.4946 12.0528 27.0386 12.5105 27.4883C12.9602 27.9463 13.5045 28.3008 14.1053 28.5268C14.6769 28.7494 15.3321 28.9016 16.2899 28.9452C17.2477 28.9888 17.5564 28.9995 20.0007 28.9995C22.4451 28.9995 22.7516 28.9891 23.7115 28.9452C24.6715 28.9012 25.3231 28.7494 25.8947 28.5268C26.4928 28.2957 27.036 27.9422 27.4893 27.4888C27.9427 27.0354 28.2963 26.4923 28.5273 25.8942C28.7499 25.3226 28.9021 24.6674 28.9457 23.7096C28.9893 22.7518 29 22.4431 29 19.9988C29 17.5544 28.9896 17.2479 28.9457 16.2879C28.9017 15.328 28.7499 14.6764 28.5273 14.1047C28.3014 13.5043 27.9472 12.9603 27.4895 12.5107C27.0397 12.0526 26.4955 11.6981 25.8947 11.4718C25.3231 11.2496 24.6679 11.0974 23.7101 11.0538C22.7523 11.0102 22.4443 10.9995 20 10.9995L20.0014 10.998Z" fill="#3d5367"/>
<path d="M20.0004 15.3779C19.0863 15.3779 18.1928 15.649 17.4328 16.1568C16.6728 16.6646 16.0805 17.3864 15.7307 18.2308C15.3809 19.0753 15.2894 20.0045 15.4677 20.901C15.646 21.7975 16.0862 22.6209 16.7325 23.2673C17.3788 23.9136 18.2023 24.3537 19.0988 24.5321C19.9952 24.7104 20.9245 24.6189 21.7689 24.2691C22.6134 23.9193 23.3352 23.3269 23.843 22.5669C24.3508 21.8069 24.6218 20.9134 24.6218 19.9994C24.6219 19.3925 24.5024 18.7915 24.2702 18.2308C24.0379 17.6701 23.6975 17.1606 23.2684 16.7314C22.8392 16.3023 22.3297 15.9619 21.769 15.7296C21.2083 15.4974 20.6073 15.3779 20.0004 15.3779V15.3779ZM20.0004 23.0003C19.4068 23.0003 18.8266 22.8243 18.3331 22.4946C17.8396 22.1648 17.455 21.6962 17.2279 21.1478C17.0007 20.5995 16.9413 19.9961 17.0571 19.4139C17.1729 18.8318 17.4587 18.2971 17.8784 17.8774C18.2981 17.4577 18.8328 17.1719 19.4149 17.0561C19.997 16.9403 20.6004 16.9997 21.1488 17.2269C21.6971 17.454 22.1658 17.8387 22.4956 18.3322C22.8253 18.8257 23.0013 19.4059 23.0013 19.9994C23.0013 20.7953 22.6852 21.5586 22.1224 22.1214C21.5596 22.6842 20.7963 23.0003 20.0004 23.0003Z" fill="#3d5367"/>
<path d="M24.8046 16.2762C25.4011 16.2762 25.8846 15.7927 25.8846 15.1962C25.8846 14.5997 25.4011 14.1162 24.8046 14.1162C24.2081 14.1162 23.7246 14.5997 23.7246 15.1962C23.7246 15.7927 24.2081 16.2762 24.8046 16.2762Z" fill="#3d5367"/>
</g>
<defs>
<clipPath id="clip0_5837_4403">
<rect width="18" height="18" fill="white" transform="translate(11 11)"/>
</clipPath>
</defs>
</svg>
