<svg viewBox="0 0 32 32" xmlns="http://www.w3.org/2000/svg"><g data-name="Layer 2"><path d="m28.35 25.73-9.6-9.6a.47.47 0 0 0-.35-.13.47.47 0 0 0-.35.15l-.61.61-1.28-1.29a7.21 7.21 0 1 0-5.44 2.49 7.13 7.13 0 0 0 4.73-1.78l1.29 1.28-.6.61a.5.5 0 0 0 0 .7l9.59 9.6a.48.48 0 0 0 .7 0l1.92-1.92a.48.48 0 0 0 0-.72Zm-22-10.61a6.23 6.23 0 1 1 4.4 1.82 6.24 6.24 0 0 1-4.43-1.82Zm19.73 12.17L17.2 18.4l1.2-1.21 8.89 8.89Z" fill="#265cff" class="fill-000000"></path><path d="M11.24 6.56a.5.5 0 0 0-.5.5.51.51 0 0 0 .5.5 3.22 3.22 0 0 1 2.7 1.81.49.49 0 0 0 .44.28.59.59 0 0 0 .23-.05.49.49 0 0 0 .22-.67 4.18 4.18 0 0 0-3.59-2.37Z" fill="#265cff" class="fill-000000"></path></g></svg>