<svg width="40" height="40" viewBox="0 0 40 40" fill="none" xmlns="http://www.w3.org/2000/svg">
<path d="M27.5783 17.0262C27.5893 17.1855 27.5893 17.3448 27.5893 17.5056C27.5893 22.4047 23.8597 28.0548 17.0401 28.0548V28.0519C15.0255 28.0548 13.0529 27.4777 11.3569 26.3897C11.6499 26.425 11.9443 26.4426 12.2394 26.4433C13.9089 26.4448 15.5307 25.8846 16.8441 24.8531C15.2575 24.823 13.8663 23.7886 13.3803 22.2784C13.936 22.3856 14.5087 22.3636 15.0542 22.2145C13.3245 21.8651 12.0801 20.3453 12.0801 18.5804C12.0801 18.5643 12.0801 18.5489 12.0801 18.5334C12.5955 18.8205 13.1725 18.9798 13.7628 18.9974C12.1337 17.9087 11.6315 15.7414 12.6153 14.047C14.4977 16.3632 17.275 17.7714 20.2565 17.9204C19.9577 16.6327 20.3659 15.2833 21.3291 14.3781C22.8224 12.9743 25.171 13.0463 26.5747 14.5389C27.405 14.3751 28.2008 14.0705 28.9291 13.6388C28.6524 14.497 28.0731 15.226 27.2993 15.6893C28.0342 15.6027 28.7522 15.4059 29.4284 15.1056C28.9306 15.8515 28.3036 16.5013 27.5783 17.0262Z" fill="#3d5367"/>
</svg>
